<?xml version="1.0" encoding="utf-8"?>
<!-- Generator: Adobe Illustrator 16.0.0, SVG Export Plug-In . SVG Version: 6.00 Build 0)  -->
<!DOCTYPE svg PUBLIC "-//W3C//DTD SVG 1.1//EN" "http://www.w3.org/Graphics/SVG/1.1/DTD/svg11.dtd">
<svg version="1.1" id="Layer_1" xmlns="http://www.w3.org/2000/svg" xmlns:xlink="http://www.w3.org/1999/xlink" x="0px" y="0px"
	 width="180px" height="180px" viewBox="0 0 180 180" enable-background="new 0 0 180 180" xml:space="preserve">
<path opacity="0.9" fill-rule="evenodd" clip-rule="evenodd" fill="#990000" d="M89.458,0C40.071,0.176-0.139,40.789,0,90.366
	C0.132,139.79,40.693,180.073,90.227,180c49.475-0.088,89.794-40.54,89.773-90.073C179.963,40.137,139.38-0.175,89.458,0z
	 M90.703,174.924c-46.94,0.264-85.437-37.676-85.634-84.404C4.871,43.58,42.861,5.201,89.634,5.069
	c46.692-0.125,84.99,37.625,85.29,84.067C175.217,136.143,137.417,174.66,90.703,174.924z"/>
<path opacity="0.75" fill-rule="evenodd" clip-rule="evenodd" fill="#990000" d="M90.707,174.924
	c46.71-0.264,84.518-38.781,84.217-85.784c-0.293-46.45-38.591-84.199-85.279-84.067C42.865,5.197,4.875,43.583,5.072,90.524
	C5.27,137.241,43.766,175.188,90.707,174.924z"/>
</svg>
